HIERARCHY
ROOT Hips
{
	OFFSET 0.000000 88.474243 0.000000
	CHANNELS 6 Xposition Yposition Zposition Zrotation Yrotation Xrotation 
	JOINT Hips_Spine
	{
		OFFSET 0.000000 0.000000 0.000000
		CHANNELS 3 Zrotation Yrotation Xrotation
		JOINT Spine
		{
			OFFSET 0.005100 8.711998 -0.691000
			CHANNELS 3 Zrotation Yrotation Xrotation
			JOINT Spine1
			{
				OFFSET -0.009200 8.660301 -1.275000
				CHANNELS 3 Zrotation Yrotation Xrotation
				JOINT Spine2
				{
					OFFSET 0.006300 9.852501 -1.857000
					CHANNELS 3 Zrotation Yrotation Xrotation
					JOINT Spine2_Neck
					{
						OFFSET 0.000000 0.000000 0.000000
						CHANNELS 3 Zrotation Yrotation Xrotation
						JOINT Neck
						{
							OFFSET 0.016300 11.420799 -0.263300
							CHANNELS 3 Zrotation Yrotation Xrotation
							End Site #name: Head
							{
								OFFSET -0.019200 9.262405 2.362500
							}
						}
					}
					JOINT Spine2_LeftShoulder
					{
						OFFSET 0.000000 0.000000 0.000000
						CHANNELS 3 Zrotation Yrotation Xrotation
						JOINT LeftShoulder
						{
							OFFSET 5.616900 6.732201 -0.345700
							CHANNELS 3 Zrotation Yrotation Xrotation
							JOINT LeftArm
							{
								OFFSET 10.664888 -0.183372 -2.440700
								CHANNELS 3 Zrotation Yrotation Xrotation
								JOINT LeftForeArm
								{
									OFFSET 27.459126 0.000000 0.000000
									CHANNELS 3 Zrotation Yrotation Xrotation
									End Site #name: LeftHand
									{
										OFFSET 21.306858 0.000000 0.000000
									}
								}
							}
						}
					}
					JOINT Spine2_RightShoulder
					{
						OFFSET 0.000000 0.000000 0.000000
						CHANNELS 3 Zrotation Yrotation Xrotation
						JOINT RightShoulder
						{
							OFFSET -5.580300 6.737503 -0.344400
							CHANNELS 3 Zrotation Yrotation Xrotation
							JOINT RightArm
							{
								OFFSET -10.679335 -0.188484 -2.383900
								CHANNELS 3 Zrotation Yrotation Xrotation
								JOINT RightForeArm
								{
									OFFSET -27.503529 0.000000 0.000000
									CHANNELS 3 Zrotation Yrotation Xrotation
									End Site #name: RightHand
									{
										OFFSET -21.306808 0.000000 0.000000
									}
								}
							}
						}
					}
				}
			}
		}
	}
	JOINT Hips_LeftUpLeg
	{
		OFFSET 0.000000 0.000000 0.000000
		CHANNELS 3 Zrotation Yrotation Xrotation
		JOINT LeftUpLeg
		{
			OFFSET 6.857700 -6.739601 0.312100
			CHANNELS 3 Zrotation Yrotation Xrotation
			JOINT LeftLeg
			{
				OFFSET -0.367590 -34.731552 -4.572400
				CHANNELS 3 Zrotation Yrotation Xrotation
				End Site #name: LeftFoot
				{
					OFFSET 0.367590 -34.656704 -6.067400
				}
			}
		}
	}
	JOINT Hips_RightUpLeg
	{
		OFFSET 0.000000 0.000000 0.000000
		CHANNELS 3 Zrotation Yrotation Xrotation
		JOINT RightUpLeg
		{
			OFFSET -6.876100 -6.733299 0.301000
			CHANNELS 3 Zrotation Yrotation Xrotation
			JOINT RightLeg
			{
				OFFSET 0.347353 -34.795158 -4.515900
				CHANNELS 3 Zrotation Yrotation Xrotation
				End Site #name: RightFoot
				{
					OFFSET -0.347353 -34.589367 -6.070300
				}
			}
		}
	}
}
MOTION
Frames: 16
Frame Time: 0.041667
0.006302 -0.020297 -0.090373 179.395402 43.897303 -176.219982 -0.000000 -0.000000 0.000000 -3.551084 3.166934 -1.303615 1.212889 -0.219643 0.745570 0.000000 0.000000 0.000000 0.988089 -0.940968 -1.697356 -1.211180 -7.982128 -1.202114 0.664959 0.074808 -0.980483 -3.664684 -6.910215 1.533767 -80.404811 -5.372263 8.701485 0.481096 -15.297872 3.485410 0.487269 -0.390180 -0.770118 18.892388 12.562214 4.375657 48.567135 20.489828 -11.758929 -10.101394 77.091680 -3.170270 0.000000 -0.000000 0.000000 -8.467449 17.319317 -16.030291 -5.465207 -33.453397 -0.665011 -0.000000 -0.000000 -0.000000 -7.804630 -29.834933 -8.492190 -14.575869 -9.956818 15.513843 
-0.228488 -0.205279 -0.136890 177.919426 56.606601 -176.232294 -0.000000 -0.000000 0.000000 -5.430476 3.266465 1.211568 1.492700 -0.377662 0.011481 0.000000 0.000000 0.000000 1.522373 -0.542139 -1.390514 -0.369411 -15.079773 0.013991 0.950375 -0.229418 -1.627804 -2.133524 -8.263567 1.717547 -86.663662 -13.740789 3.228810 -1.074286 -10.804197 1.971484 1.340704 -0.794924 0.443092 24.974609 14.860523 4.847350 46.900905 22.155869 -9.048231 0.085683 63.942507 5.447116 -0.000000 -0.000000 -0.000000 -7.318279 17.377735 -15.223957 -3.323847 -31.907219 -5.605813 -0.000000 -0.000000 -0.000000 -7.684701 -33.789366 -8.472210 -13.091409 -6.424362 15.769350 
-0.276075 -0.300054 -0.149289 176.604109 45.625360 -177.056760 -0.000000 -0.000000 0.000000 -5.752090 0.299934 1.400330 1.851307 -0.461674 -0.561888 0.000000 0.000000 0.000000 1.993811 -0.708736 -1.443201 -0.527419 -24.197061 0.262459 1.061020 -0.202918 -2.060113 -0.906783 -7.284175 1.015949 -87.912876 -15.726154 -3.046790 -0.755102 -3.560473 2.351411 1.630461 -0.929428 -0.557052 26.934170 16.437544 5.783139 49.126132 22.515271 -3.256054 4.192577 61.723986 9.916822 -0.000000 -0.000000 -0.000000 -6.592509 18.169061 -14.616709 -2.589869 -32.273426 -6.756213 -0.000000 -0.000000 -0.000000 -8.023091 -39.519415 -7.108570 -13.294066 -6.484071 16.847905 
-0.159495 -0.363724 -0.145859 177.087146 34.125893 -177.244130 -0.000000 -0.000000 0.000000 -5.752660 -1.060873 2.178409 1.599200 -0.851510 -0.955114 0.000000 0.000000 0.000000 1.951569 -1.093199 -1.179592 -1.423067 -28.467997 0.563833 0.932987 -0.470658 -2.255953 -0.522516 -6.609621 0.583367 -88.535226 -17.101132 -3.948600 -0.562244 -0.213537 2.599549 1.451485 -1.477649 -0.563722 26.501844 16.451527 6.041483 50.106548 21.624894 -1.086172 7.394818 62.109873 12.773601 -0.000000 0.000000 -0.000000 -5.976849 18.521614 -13.443994 -1.862307 -32.986486 -8.217463 -0.000000 -0.000000 -0.000000 -8.341104 -46.294109 -6.868750 -14.158055 -6.302096 18.161913 
-0.027606 -0.399807 -0.186345 176.977952 23.085940 -177.538448 -0.000000 -0.000000 0.000000 -5.146212 -1.243511 2.662635 1.252200 -1.140316 -1.030638 0.000000 0.000000 0.000000 1.772412 -1.357087 -0.478890 -1.638298 -30.079536 0.645522 0.669825 -0.781387 -2.133582 -0.450318 -6.185187 0.371259 -88.737917 -18.172995 -3.468207 0.361736 1.003161 3.685152 1.055924 -1.860614 -0.100075 25.250945 15.983712 5.908124 50.832879 20.795968 1.403601 9.973235 62.615296 14.152641 -0.000000 0.000000 -0.000000 -5.545096 18.971122 -12.929562 -1.602610 -34.135760 -9.043199 -0.000000 -0.000000 -0.000000 -8.150026 -50.904550 -7.070802 -15.135202 -6.055883 19.374908 
0.110350 -0.411500 -0.258766 176.464470 15.329883 -177.720856 -0.000000 -0.000000 0.000000 -4.353429 -0.740916 3.248194 0.879178 -1.398533 -0.670554 0.000000 0.000000 0.000000 1.519091 -1.496425 0.418612 -1.227649 -29.792918 0.296280 0.388457 -0.981358 -1.700199 -0.466258 -5.747684 0.235880 -88.818651 -18.273061 -2.482367 1.800749 0.976301 5.337691 0.804724 -2.011735 0.088266 23.880286 15.395657 5.567619 51.464576 19.381393 3.214545 9.570736 62.657361 13.480545 -0.000000 0.000000 -0.000000 -5.602681 18.941090 -13.246653 -1.633963 -34.631816 -9.117008 -0.000000 -0.000000 -0.000000 -7.532922 -53.928155 -7.879275 -15.894646 -6.239099 20.162310 
0.251942 -0.407952 -0.350552 175.732123 10.551999 -177.790443 -0.000000 -0.000000 0.000000 -3.689106 0.161200 3.829837 0.518716 -1.497114 -0.024809 0.000000 0.000000 0.000000 1.232276 -1.538063 1.255594 -0.538814 -28.633831 -0.171490 0.175747 -1.058596 -1.281689 -0.589715 -4.963330 0.018995 -88.590595 -18.006052 -1.184069 2.855226 0.103728 6.651978 0.516489 -2.058631 0.258722 22.707748 14.828913 5.091166 51.935182 18.083354 4.628640 9.781949 61.303164 13.651715 -0.000000 0.000000 -0.000000 -5.777216 18.588743 -13.848882 -1.679719 -34.659265 -9.095618 -0.000000 -0.000000 -0.000000 -7.027402 -55.772742 -8.774668 -16.520797 -6.967514 20.482327 
0.391612 -0.401676 -0.452266 175.171035 7.268919 -177.775380 -0.000000 -0.000000 0.000000 -3.401191 1.159978 4.267000 0.206261 -1.490422 0.617298 0.000000 0.000000 0.000000 0.865331 -1.501841 1.889444 -0.075668 -27.595515 -0.457556 -0.050414 -1.077122 -0.908900 -0.773129 -4.305830 -0.067372 -87.888714 -17.928233 0.098868 3.446452 -1.347442 7.322580 0.175262 -2.056689 0.405353 21.752137 14.394401 4.654369 52.146654 17.079170 5.966524 9.744695 58.512069 13.667273 -0.000000 0.000000 -0.000000 -5.920967 18.172029 -14.393936 -1.694305 -34.502187 -9.069527 -0.000000 -0.000000 -0.000000 -6.727795 -56.355092 -9.511391 -16.959853 -7.782840 20.439008 
0.529485 -0.395102 -0.551888 174.758321 4.147802 -177.771954 -0.000000 -0.000000 0.000000 -3.406806 1.964668 4.612903 -0.072015 -1.457340 1.127723 0.000000 0.000000 0.000000 0.552739 -1.443307 2.269818 0.215154 -27.001074 -0.620554 -0.275649 -1.070928 -0.619349 -0.902596 -3.771039 -0.075130 -87.108620 -18.298141 1.384547 3.750834 -3.387290 7.383763 -0.145597 -2.056056 0.513511 21.044305 14.192631 4.423332 52.313093 16.171150 6.878400 9.276432 54.400482 13.255345 -0.000000 0.000000 -0.000000 -5.983469 17.850077 -14.632577 -1.679835 -34.373857 -9.027595 -0.000000 -0.000000 -0.000000 -6.615922 -56.293488 -9.957075 -17.218404 -8.645687 20.115478 
0.662841 -0.385104 -0.653592 174.512648 1.184899 -177.794264 -0.000000 -0.000000 0.000000 -3.603045 2.418614 4.789493 -0.297491 -1.437652 1.466832 0.000000 0.000000 0.000000 0.329794 -1.419039 2.576529 0.431111 -26.942045 -0.692957 -0.449508 -1.075735 -0.425164 -0.963188 -3.463860 0.005079 -86.280047 -18.738273 1.757999 3.959679 -6.223453 7.088219 -0.405229 -2.071129 0.668865 20.583152 14.092003 4.258045 52.505290 15.647327 7.254918 9.217566 50.766317 13.033664 0.000000 0.000000 -0.000000 -5.965817 17.669359 -14.592143 -1.662293 -34.320902 -8.930200 -0.000000 -0.000000 -0.000000 -6.746020 -55.851866 -10.034048 -17.305228 -9.533906 19.619878 
0.792258 -0.370921 -0.759225 174.389124 -1.388222 -177.825496 -0.000000 -0.000000 0.000000 -3.869366 2.551757 4.971535 -0.454819 -1.466905 1.711255 0.000000 0.000000 0.000000 0.175509 -1.422274 2.797626 0.634032 -27.174561 -0.797795 -0.567460 -1.095388 -0.296621 -0.943548 -3.375157 0.140205 -85.609894 -19.243228 1.868534 4.242146 -9.530565 6.629056 -0.585432 -2.118514 0.798842 20.315709 14.085820 4.151969 52.660112 15.478002 7.363703 9.651336 48.751358 13.105114 0.000000 0.000000 -0.000000 -5.893279 17.592135 -14.337504 -1.638771 -34.358421 -8.849868 -0.000000 -0.000000 -0.000000 -6.989250 -55.187749 -9.911686 -17.313798 -10.466285 19.143341 
0.919395 -0.353845 -0.870205 174.325625 -3.527127 -177.856108 -0.000000 -0.000000 0.000000 -4.137606 2.488557 5.171829 -0.566851 -1.546079 1.878860 0.000000 0.000000 0.000000 0.086989 -1.456143 2.970368 0.829141 -27.472432 -0.853235 -0.637619 -1.138542 -0.208609 -0.899284 -3.380906 0.273942 -85.063099 -19.750126 2.225276 4.598152 -12.935040 5.989775 -0.703992 -2.190198 0.898526 20.175644 14.176521 4.095668 52.793511 15.574907 7.305329 10.175452 48.480286 13.295518 0.000000 0.000000 -0.000000 -5.791910 17.559815 -13.941531 -1.588593 -34.522807 -8.872207 -0.000000 -0.000000 -0.000000 -7.202813 -54.323276 -9.832404 -17.294592 -11.401574 18.934052 
1.045075 -0.336093 -0.987100 174.312519 -5.260103 -177.876406 -0.000000 -0.000000 0.000000 -4.400789 2.291453 5.299681 -0.644907 -1.648711 1.999177 0.000000 0.000000 0.000000 0.052304 -1.505887 3.115502 1.015096 -27.790721 -0.847583 -0.669705 -1.192298 -0.138025 -0.831814 -3.485014 0.397956 -84.528982 -20.206884 2.615649 5.039284 -16.162920 5.328306 -0.769167 -2.267689 0.977569 20.130015 14.345690 4.086384 52.952334 15.839007 7.146086 10.744633 49.806804 13.609494 0.000000 0.000000 -0.000000 -5.671837 17.555632 -13.478497 -1.544103 -34.826367 -9.022463 -0.000000 -0.000000 -0.000000 -7.319659 -53.312008 -9.861179 -17.227472 -12.248395 18.796784 
1.169697 -0.318049 -1.107819 174.312866 -6.718997 -177.884425 -0.000000 -0.000000 0.000000 -4.614922 2.055653 5.376352 -0.682559 -1.753556 2.091773 0.000000 0.000000 0.000000 0.050312 -1.552399 3.228142 1.175974 -28.070405 -0.772515 -0.677796 -1.248142 -0.082142 -0.734073 -3.503294 0.418466 -84.041342 -20.522200 2.926412 5.440552 -19.014476 4.691267 -0.795675 -2.346394 1.041223 20.138117 14.580445 4.106534 53.097393 16.172395 6.936568 11.339276 51.816790 13.990041 0.000000 0.000000 -0.000000 -5.547329 17.546385 -12.957242 -1.474177 -35.269144 -9.324554 -0.000000 -0.000000 -0.000000 -7.292077 -52.225373 -10.019431 -17.031761 -12.831100 18.680950 
1.292786 -0.301548 -1.231486 174.322944 -7.999990 -177.880350 -0.000000 -0.000000 0.000000 -4.777140 1.834640 5.427433 -0.683106 -1.851155 2.157155 0.000000 0.000000 0.000000 0.072726 -1.592796 3.303786 1.335584 -28.321217 -0.652600 -0.669447 -1.305046 -0.039030 -0.625860 -3.532209 0.425381 -83.651234 -20.692353 3.174584 5.778240 -21.415615 4.134500 -0.793465 -2.422429 1.089527 20.161721 14.837064 4.131055 53.224557 16.588625 6.682170 11.944969 53.921685 14.398745 0.000000 0.000000 -0.000000 -5.413320 17.524288 -12.384870 -1.358559 -35.791803 -9.770276 -0.000000 0.000000 -0.000000 -7.171518 -51.368269 -10.204388 -16.947307 -13.237824 18.578774 
1.413751 -0.288601 -1.357947 174.351682 -9.188952 -177.869644 -0.000000 -0.000000 0.000000 -4.829124 1.640544 5.414889 -0.653902 -1.954246 2.203367 0.000000 0.000000 0.000000 0.115782 -1.635244 3.377689 1.518684 -28.592855 -0.542417 -0.645692 -1.365136 -0.016261 -0.494791 -3.508120 0.387269 -83.371375 -20.779348 3.347365 6.067085 -23.330306 3.694613 -0.764959 -2.497613 1.129642 20.160434 15.059594 4.147077 53.364578 17.012418 6.490352 12.503116 55.818540 14.763812 0.000000 0.000000 -0.000000 -5.275607 17.474685 -11.754298 -1.193293 -36.298043 -10.340429 -0.000000 0.000000 -0.000000 -7.000854 -50.818675 -10.363539 -16.872505 -13.379364 18.448416 
